<svg width="862" height="862" viewBox="0 0 862 862" fill="none" xmlns="http://www.w3.org/2000/svg">
<g clip-path="url(#clip0_312_230)">
<path d="M247.756 256.247C244.001 249.714 236.417 246.293 229.182 248.401C204.1 255.706 180.765 268.165 160.692 285.03C137.383 304.615 119.17 329.559 107.612 357.725C96.0542 385.891 91.4969 416.439 94.3304 446.751C97.1639 477.064 107.304 506.238 123.881 531.774C140.459 557.31 162.98 578.446 189.515 593.372C216.05 608.298 245.808 616.569 276.239 617.476C306.67 618.383 336.868 611.899 364.245 598.579C387.966 587.038 408.957 570.663 425.895 550.555C430.597 544.973 430.708 536.957 426.632 530.903L407.706 502.796C394.789 483.613 364.285 485.785 347.277 501.456C340.623 507.587 332.979 513.06 324.431 516.746C310.283 523.63 294.677 526.981 278.95 526.512C263.223 526.043 247.844 521.769 234.131 514.055C220.417 506.342 208.779 495.418 200.211 482.221C191.644 469.024 186.404 453.947 184.939 438.282C183.475 422.616 185.83 406.829 191.803 392.273C197.776 377.717 207.189 364.826 219.235 354.704C228.716 347.34 237.375 341.976 245.129 338.092C259.442 330.923 274.7 303.116 266.721 289.237L247.756 256.247Z" fill="#1B9388"/>
<path d="M305.437 248.405C289.28 247.969 278.748 263.12 286.719 277.181C327.573 349.24 435.567 496.01 455.565 529.268C479.015 568.265 516.141 597.138 559.712 610.262C603.284 623.386 650.18 619.822 691.268 600.263C732.355 580.704 764.69 546.551 781.976 504.457C799.262 462.363 800.26 415.341 784.776 372.552C769.292 329.762 738.434 294.268 698.214 272.983C657.994 251.699 611.29 246.148 567.201 257.411C528.92 267.191 494.99 289.039 470.296 319.478C463.453 327.913 463.589 339.796 469.567 348.864L488.389 377.418C498.596 392.901 529.968 388.387 542.113 374.373C557.046 357.141 575.878 344.991 588.736 341.706C611.883 335.793 636.403 338.707 657.519 349.882C678.635 361.056 694.836 379.691 702.965 402.156C711.095 424.621 710.571 449.308 701.495 471.408C692.42 493.508 675.444 511.438 653.872 521.707C632.301 531.976 607.68 533.847 584.804 526.957C561.929 520.067 542.437 504.908 530.126 484.434C518.204 464.606 444.397 348.105 429.98 321.368C429.153 319.834 428.161 318.396 426.975 317.118L405.044 293.477C379.252 265.673 343.349 249.427 305.437 248.405Z" fill="#156F66"/>
</g>
<defs>
<clipPath id="clip0_312_230">
<rect width="862.01" height="862.01" fill="white"/>
</clipPath>
</defs>
</svg>
